<mxfile host="app.diagrams.net" modified="2022-07-26T10:20:10.123Z" agent="5.0 (Windows NT 10.0; Win64; x64) AppleWebKit/537.36 (KHTML, like Gecko) Chrome/103.0.0.0 Safari/537.36" etag="G8CvYsfQ__O2K-UoWCLI" version="20.2.0" type="github">
  <diagram id="C5RBs43oDa-KdzZeNtuy" name="Page-1">
    <mxGraphModel dx="782" dy="380" grid="1" gridSize="10" guides="1" tooltips="1" connect="1" arrows="1" fold="1" page="1" pageScale="1" pageWidth="827" pageHeight="1169" math="0" shadow="0">
      <root>
        <mxCell id="WIyWlLk6GJQsqaUBKTNV-0" />
        <mxCell id="WIyWlLk6GJQsqaUBKTNV-1" parent="WIyWlLk6GJQsqaUBKTNV-0" />
        <mxCell id="18xOk9870n2kaLZsZHPf-14" value="&lt;h1&gt;①-②&lt;/h1&gt;&lt;div&gt;Toast中先通过makeText()创建toast对象，调用show()方法利用AIDL文件与Service建立连接&lt;/div&gt;" style="text;html=1;strokeColor=none;fillColor=none;spacing=5;spacingTop=-20;whiteSpace=wrap;overflow=hidden;rounded=0;" vertex="1" parent="WIyWlLk6GJQsqaUBKTNV-1">
          <mxGeometry x="150" y="630" width="220" height="120" as="geometry" />
        </mxCell>
        <mxCell id="18xOk9870n2kaLZsZHPf-15" value="&lt;h1&gt;③-④&lt;/h1&gt;&lt;div&gt;NotificationManagerService先对enqueueToast中的TN对象进行判断，判断该Toast为系统Toast还是普通Toast，系统Toast不会对数量进行限制，普通Toast的最大数量限制为50。&lt;/div&gt;&lt;div&gt;将所有TN对象封装为ToastRecord对象，不是首个ToastRecord对象存储在mToastQueue队列中&lt;/div&gt;&lt;div&gt;第一个ToastRecord对象进行会使用&lt;/div&gt;&lt;span style=&quot;text-align: center;&quot;&gt;ITransientNotification来连接TN，TN类的show()方法发送Messager来调用handleShow()处理Toast的View的显示。&lt;br&gt;scheduleDurationReachedLocked()为计时器，延迟设定的时间发送Messager调用cancelToastLockedI()方法，同样的方法连接TN类，调用hide()方法发送Messager来调用handleHide()方法处理Toast的隐藏&lt;br&gt;&lt;/span&gt;" style="text;html=1;strokeColor=none;fillColor=none;spacing=5;spacingTop=-20;whiteSpace=wrap;overflow=hidden;rounded=0;" vertex="1" parent="WIyWlLk6GJQsqaUBKTNV-1">
          <mxGeometry x="445" y="570" width="230" height="310" as="geometry" />
        </mxCell>
        <mxCell id="18xOk9870n2kaLZsZHPf-17" value="Toast" style="swimlane;fontStyle=0;childLayout=stackLayout;horizontal=1;startSize=30;horizontalStack=0;resizeParent=1;resizeParentMax=0;resizeLast=0;collapsible=1;marginBottom=0;" vertex="1" parent="WIyWlLk6GJQsqaUBKTNV-1">
          <mxGeometry x="60" y="220" width="140" height="90" as="geometry" />
        </mxCell>
        <mxCell id="18xOk9870n2kaLZsZHPf-18" value="show()" style="text;strokeColor=none;fillColor=none;align=left;verticalAlign=middle;spacingLeft=4;spacingRight=4;overflow=hidden;points=[[0,0.5],[1,0.5]];portConstraint=eastwest;rotatable=0;" vertex="1" parent="18xOk9870n2kaLZsZHPf-17">
          <mxGeometry y="30" width="140" height="30" as="geometry" />
        </mxCell>
        <mxCell id="18xOk9870n2kaLZsZHPf-19" value="cancel()" style="text;strokeColor=none;fillColor=none;align=left;verticalAlign=middle;spacingLeft=4;spacingRight=4;overflow=hidden;points=[[0,0.5],[1,0.5]];portConstraint=eastwest;rotatable=0;" vertex="1" parent="18xOk9870n2kaLZsZHPf-17">
          <mxGeometry y="60" width="140" height="30" as="geometry" />
        </mxCell>
        <mxCell id="18xOk9870n2kaLZsZHPf-29" style="edgeStyle=orthogonalEdgeStyle;rounded=0;orthogonalLoop=1;jettySize=auto;html=1;exitX=1;exitY=0.5;exitDx=0;exitDy=0;" edge="1" parent="18xOk9870n2kaLZsZHPf-17" source="18xOk9870n2kaLZsZHPf-18" target="18xOk9870n2kaLZsZHPf-18">
          <mxGeometry relative="1" as="geometry" />
        </mxCell>
        <mxCell id="18xOk9870n2kaLZsZHPf-24" value="INotificationManager" style="swimlane;fontStyle=0;childLayout=stackLayout;horizontal=1;startSize=30;horizontalStack=0;resizeParent=1;resizeParentMax=0;resizeLast=0;collapsible=1;marginBottom=0;" vertex="1" parent="WIyWlLk6GJQsqaUBKTNV-1">
          <mxGeometry x="260" y="220" width="140" height="60" as="geometry" />
        </mxCell>
        <mxCell id="18xOk9870n2kaLZsZHPf-25" value="enqueueToast()" style="text;strokeColor=none;fillColor=none;align=left;verticalAlign=middle;spacingLeft=4;spacingRight=4;overflow=hidden;points=[[0,0.5],[1,0.5]];portConstraint=eastwest;rotatable=0;" vertex="1" parent="18xOk9870n2kaLZsZHPf-24">
          <mxGeometry y="30" width="140" height="30" as="geometry" />
        </mxCell>
        <mxCell id="18xOk9870n2kaLZsZHPf-28" style="edgeStyle=orthogonalEdgeStyle;rounded=0;orthogonalLoop=1;jettySize=auto;html=1;exitX=1;exitY=0.5;exitDx=0;exitDy=0;entryX=0;entryY=0.5;entryDx=0;entryDy=0;" edge="1" parent="WIyWlLk6GJQsqaUBKTNV-1" source="18xOk9870n2kaLZsZHPf-18" target="18xOk9870n2kaLZsZHPf-25">
          <mxGeometry relative="1" as="geometry" />
        </mxCell>
        <mxCell id="18xOk9870n2kaLZsZHPf-30" value="NotificationManagerService" style="swimlane;fontStyle=0;childLayout=stackLayout;horizontal=1;startSize=30;horizontalStack=0;resizeParent=1;resizeParentMax=0;resizeLast=0;collapsible=1;marginBottom=0;" vertex="1" parent="WIyWlLk6GJQsqaUBKTNV-1">
          <mxGeometry x="490" y="220" width="200" height="150" as="geometry" />
        </mxCell>
        <mxCell id="18xOk9870n2kaLZsZHPf-31" value="enqueueToast()" style="text;strokeColor=none;fillColor=none;align=left;verticalAlign=middle;spacingLeft=4;spacingRight=4;overflow=hidden;points=[[0,0.5],[1,0.5]];portConstraint=eastwest;rotatable=0;" vertex="1" parent="18xOk9870n2kaLZsZHPf-30">
          <mxGeometry y="30" width="200" height="30" as="geometry" />
        </mxCell>
        <mxCell id="18xOk9870n2kaLZsZHPf-32" value="showNextToastLocked()" style="text;strokeColor=none;fillColor=none;align=left;verticalAlign=middle;spacingLeft=4;spacingRight=4;overflow=hidden;points=[[0,0.5],[1,0.5]];portConstraint=eastwest;rotatable=0;" vertex="1" parent="18xOk9870n2kaLZsZHPf-30">
          <mxGeometry y="60" width="200" height="30" as="geometry" />
        </mxCell>
        <mxCell id="18xOk9870n2kaLZsZHPf-33" value="scheduleDurationReachedLocked()" style="text;strokeColor=none;fillColor=none;align=left;verticalAlign=middle;spacingLeft=4;spacingRight=4;overflow=hidden;points=[[0,0.5],[1,0.5]];portConstraint=eastwest;rotatable=0;" vertex="1" parent="18xOk9870n2kaLZsZHPf-30">
          <mxGeometry y="90" width="200" height="30" as="geometry" />
        </mxCell>
        <mxCell id="18xOk9870n2kaLZsZHPf-34" value="cancelToastLocked()" style="text;strokeColor=none;fillColor=none;align=left;verticalAlign=middle;spacingLeft=4;spacingRight=4;overflow=hidden;points=[[0,0.5],[1,0.5]];portConstraint=eastwest;rotatable=0;" vertex="1" parent="18xOk9870n2kaLZsZHPf-30">
          <mxGeometry y="120" width="200" height="30" as="geometry" />
        </mxCell>
        <mxCell id="18xOk9870n2kaLZsZHPf-38" style="edgeStyle=orthogonalEdgeStyle;rounded=0;orthogonalLoop=1;jettySize=auto;html=1;exitX=1;exitY=0.5;exitDx=0;exitDy=0;entryX=-0.016;entryY=0.484;entryDx=0;entryDy=0;entryPerimeter=0;" edge="1" parent="WIyWlLk6GJQsqaUBKTNV-1" source="18xOk9870n2kaLZsZHPf-25" target="18xOk9870n2kaLZsZHPf-31">
          <mxGeometry relative="1" as="geometry" />
        </mxCell>
        <mxCell id="18xOk9870n2kaLZsZHPf-59" style="edgeStyle=orthogonalEdgeStyle;rounded=0;orthogonalLoop=1;jettySize=auto;html=1;entryX=1;entryY=0.5;entryDx=0;entryDy=0;" edge="1" parent="WIyWlLk6GJQsqaUBKTNV-1" source="18xOk9870n2kaLZsZHPf-39" target="18xOk9870n2kaLZsZHPf-58">
          <mxGeometry relative="1" as="geometry" />
        </mxCell>
        <mxCell id="18xOk9870n2kaLZsZHPf-39" value="ITransientNotification" style="swimlane;fontStyle=0;childLayout=stackLayout;horizontal=1;startSize=30;horizontalStack=0;resizeParent=1;resizeParentMax=0;resizeLast=0;collapsible=1;marginBottom=0;" vertex="1" parent="WIyWlLk6GJQsqaUBKTNV-1">
          <mxGeometry x="490" y="410" width="140" height="90" as="geometry" />
        </mxCell>
        <mxCell id="18xOk9870n2kaLZsZHPf-40" value="show()" style="text;strokeColor=none;fillColor=none;align=left;verticalAlign=middle;spacingLeft=4;spacingRight=4;overflow=hidden;points=[[0,0.5],[1,0.5]];portConstraint=eastwest;rotatable=0;" vertex="1" parent="18xOk9870n2kaLZsZHPf-39">
          <mxGeometry y="30" width="140" height="30" as="geometry" />
        </mxCell>
        <mxCell id="18xOk9870n2kaLZsZHPf-41" value="hide()" style="text;strokeColor=none;fillColor=none;align=left;verticalAlign=middle;spacingLeft=4;spacingRight=4;overflow=hidden;points=[[0,0.5],[1,0.5]];portConstraint=eastwest;rotatable=0;" vertex="1" parent="18xOk9870n2kaLZsZHPf-39">
          <mxGeometry y="60" width="140" height="30" as="geometry" />
        </mxCell>
        <mxCell id="18xOk9870n2kaLZsZHPf-43" style="edgeStyle=orthogonalEdgeStyle;rounded=0;orthogonalLoop=1;jettySize=auto;html=1;exitX=1;exitY=0.5;exitDx=0;exitDy=0;entryX=1;entryY=0.5;entryDx=0;entryDy=0;" edge="1" parent="WIyWlLk6GJQsqaUBKTNV-1" source="18xOk9870n2kaLZsZHPf-33" target="18xOk9870n2kaLZsZHPf-40">
          <mxGeometry relative="1" as="geometry" />
        </mxCell>
        <mxCell id="18xOk9870n2kaLZsZHPf-44" style="edgeStyle=orthogonalEdgeStyle;rounded=0;orthogonalLoop=1;jettySize=auto;html=1;exitX=1;exitY=0.5;exitDx=0;exitDy=0;entryX=1;entryY=0.5;entryDx=0;entryDy=0;" edge="1" parent="WIyWlLk6GJQsqaUBKTNV-1" source="18xOk9870n2kaLZsZHPf-34" target="18xOk9870n2kaLZsZHPf-41">
          <mxGeometry relative="1" as="geometry">
            <Array as="points">
              <mxPoint x="720" y="355" />
              <mxPoint x="720" y="485" />
            </Array>
          </mxGeometry>
        </mxCell>
        <mxCell id="18xOk9870n2kaLZsZHPf-45" value="TN" style="swimlane;fontStyle=0;childLayout=stackLayout;horizontal=1;startSize=30;horizontalStack=0;resizeParent=1;resizeParentMax=0;resizeLast=0;collapsible=1;marginBottom=0;" vertex="1" parent="WIyWlLk6GJQsqaUBKTNV-1">
          <mxGeometry x="260" y="410" width="140" height="150" as="geometry" />
        </mxCell>
        <mxCell id="18xOk9870n2kaLZsZHPf-58" value="show()" style="text;strokeColor=none;fillColor=none;align=left;verticalAlign=middle;spacingLeft=4;spacingRight=4;overflow=hidden;points=[[0,0.5],[1,0.5]];portConstraint=eastwest;rotatable=0;" vertex="1" parent="18xOk9870n2kaLZsZHPf-45">
          <mxGeometry y="30" width="140" height="30" as="geometry" />
        </mxCell>
        <mxCell id="18xOk9870n2kaLZsZHPf-60" value="hide()" style="text;strokeColor=none;fillColor=none;align=left;verticalAlign=middle;spacingLeft=4;spacingRight=4;overflow=hidden;points=[[0,0.5],[1,0.5]];portConstraint=eastwest;rotatable=0;" vertex="1" parent="18xOk9870n2kaLZsZHPf-45">
          <mxGeometry y="60" width="140" height="30" as="geometry" />
        </mxCell>
        <mxCell id="18xOk9870n2kaLZsZHPf-46" value="handleShow()" style="text;strokeColor=none;fillColor=none;align=left;verticalAlign=middle;spacingLeft=4;spacingRight=4;overflow=hidden;points=[[0,0.5],[1,0.5]];portConstraint=eastwest;rotatable=0;" vertex="1" parent="18xOk9870n2kaLZsZHPf-45">
          <mxGeometry y="90" width="140" height="30" as="geometry" />
        </mxCell>
        <mxCell id="18xOk9870n2kaLZsZHPf-47" value="handleHide()" style="text;strokeColor=none;fillColor=none;align=left;verticalAlign=middle;spacingLeft=4;spacingRight=4;overflow=hidden;points=[[0,0.5],[1,0.5]];portConstraint=eastwest;rotatable=0;" vertex="1" parent="18xOk9870n2kaLZsZHPf-45">
          <mxGeometry y="120" width="140" height="30" as="geometry" />
        </mxCell>
        <mxCell id="18xOk9870n2kaLZsZHPf-51" value="" style="shape=flexArrow;endArrow=classic;html=1;rounded=0;width=6;endSize=7.52;" edge="1" parent="WIyWlLk6GJQsqaUBKTNV-1">
          <mxGeometry width="50" height="50" relative="1" as="geometry">
            <mxPoint x="320" y="400" as="sourcePoint" />
            <mxPoint x="170" y="320" as="targetPoint" />
          </mxGeometry>
        </mxCell>
        <mxCell id="18xOk9870n2kaLZsZHPf-52" value="①" style="text;html=1;align=center;verticalAlign=middle;resizable=0;points=[];autosize=1;strokeColor=none;fillColor=none;" vertex="1" parent="WIyWlLk6GJQsqaUBKTNV-1">
          <mxGeometry x="210" y="235" width="40" height="30" as="geometry" />
        </mxCell>
        <mxCell id="18xOk9870n2kaLZsZHPf-53" value="②" style="text;html=1;align=center;verticalAlign=middle;resizable=0;points=[];autosize=1;strokeColor=none;fillColor=none;" vertex="1" parent="WIyWlLk6GJQsqaUBKTNV-1">
          <mxGeometry x="420" y="235" width="40" height="30" as="geometry" />
        </mxCell>
        <mxCell id="18xOk9870n2kaLZsZHPf-54" value="③" style="text;html=1;align=center;verticalAlign=middle;resizable=0;points=[];autosize=1;strokeColor=none;fillColor=none;" vertex="1" parent="WIyWlLk6GJQsqaUBKTNV-1">
          <mxGeometry x="710" y="385" width="40" height="30" as="geometry" />
        </mxCell>
        <mxCell id="18xOk9870n2kaLZsZHPf-55" value="④" style="text;html=1;align=center;verticalAlign=middle;resizable=0;points=[];autosize=1;strokeColor=none;fillColor=none;" vertex="1" parent="WIyWlLk6GJQsqaUBKTNV-1">
          <mxGeometry x="430" y="430" width="40" height="30" as="geometry" />
        </mxCell>
        <mxCell id="18xOk9870n2kaLZsZHPf-61" style="edgeStyle=orthogonalEdgeStyle;rounded=0;orthogonalLoop=1;jettySize=auto;html=1;entryX=1;entryY=0.5;entryDx=0;entryDy=0;" edge="1" parent="WIyWlLk6GJQsqaUBKTNV-1" source="18xOk9870n2kaLZsZHPf-41" target="18xOk9870n2kaLZsZHPf-60">
          <mxGeometry relative="1" as="geometry" />
        </mxCell>
      </root>
    </mxGraphModel>
  </diagram>
</mxfile>
